<svg width="125" height="25" viewBox="0 0 125 25" fill="none" xmlns="http://www.w3.org/2000/svg">
<path d="M0.59198 24.76V23.464H0.92798C1.51998 23.464 2.04798 23.328 2.51198 23.056C2.97598 22.8 3.34398 22.352 3.61598 21.712C3.90398 21.088 4.04798 20.224 4.04798 19.12V4.55201C4.04798 4.10401 3.97598 3.77601 3.83198 3.56801C3.68798 3.34401 3.50398 3.20001 3.27998 3.13601C3.05598 3.07201 2.80798 3.04001 2.53598 3.04001H1.79198V1.86401H9.59198V3.04001H8.84798C8.57598 3.04001 8.31998 3.08001 8.07998 3.16001C7.83998 3.22401 7.64798 3.36801 7.50398 3.59201C7.37598 3.81601 7.31198 4.16801 7.31198 4.64801V19.096C7.31198 20.184 7.15198 21.088 6.83198 21.808C6.51198 22.544 6.07198 23.12 5.51198 23.536C4.95198 23.968 4.30398 24.28 3.56798 24.472C2.83198 24.664 2.07198 24.76 1.28798 24.76H0.59198Z" fill="white"/>
<path d="M16.5 19.24C15.236 19.24 14.268 18.864 13.596 18.112C12.924 17.344 12.588 16.144 12.588 14.512V8.99201C12.588 8.51201 12.516 8.15201 12.372 7.91201C12.228 7.67201 12.02 7.51201 11.748 7.43201C11.492 7.35201 11.18 7.31201 10.812 7.31201H10.764V6.13601H15.708V14.032C15.708 14.736 15.764 15.336 15.876 15.832C16.004 16.328 16.22 16.712 16.524 16.984C16.828 17.256 17.244 17.392 17.772 17.392C18.364 17.392 18.844 17.24 19.212 16.936C19.58 16.616 19.852 16.176 20.028 15.616C20.204 15.056 20.292 14.4 20.292 13.648V8.92001C20.292 8.44001 20.204 8.08801 20.028 7.86401C19.868 7.64001 19.652 7.49601 19.38 7.43201C19.108 7.35201 18.804 7.31201 18.468 7.31201H18.396V6.13601H23.412V16.288C23.412 16.752 23.484 17.096 23.628 17.32C23.788 17.528 24.004 17.664 24.276 17.728C24.548 17.792 24.844 17.824 25.164 17.824H25.308V19H20.892L20.436 17.2H20.316C20.076 17.632 19.812 17.984 19.524 18.256C19.236 18.512 18.932 18.712 18.612 18.856C18.292 19 17.956 19.096 17.604 19.144C17.252 19.208 16.884 19.24 16.5 19.24Z" fill="white"/>
<path d="M31.2426 19.24C30.2186 19.24 29.3706 19.128 28.6986 18.904C28.0426 18.68 27.5546 18.368 27.2346 17.968C26.9146 17.552 26.7546 17.072 26.7546 16.528C26.7546 16.032 26.8666 15.664 27.0906 15.424C27.3146 15.168 27.5786 15 27.8826 14.92C28.1866 14.824 28.4586 14.776 28.6986 14.776C28.6986 15.4 28.7946 15.952 28.9866 16.432C29.1946 16.896 29.4906 17.264 29.8746 17.536C30.2586 17.792 30.7306 17.92 31.2906 17.92C32.1386 17.92 32.7626 17.744 33.1626 17.392C33.5626 17.04 33.7626 16.6 33.7626 16.072C33.7626 15.704 33.6746 15.392 33.4986 15.136C33.3386 14.88 33.0426 14.632 32.6106 14.392C32.1786 14.152 31.5786 13.888 30.8106 13.6C29.9786 13.28 29.2746 12.944 28.6986 12.592C28.1226 12.224 27.6906 11.8 27.4026 11.32C27.1146 10.84 26.9706 10.24 26.9706 9.52001C26.9706 8.32001 27.4186 7.41601 28.3146 6.80801C29.2106 6.18401 30.3946 5.87201 31.8666 5.87201C32.7946 5.87201 33.5466 5.97601 34.1226 6.18401C34.6986 6.39201 35.1226 6.67201 35.3946 7.02401C35.6666 7.36001 35.8026 7.72001 35.8026 8.10401C35.8026 8.60001 35.6266 8.98401 35.2746 9.25601C34.9386 9.52801 34.3946 9.66401 33.6426 9.66401C33.6426 8.86401 33.4666 8.24801 33.1146 7.81601C32.7626 7.36801 32.2346 7.14401 31.5306 7.14401C31.1306 7.14401 30.7706 7.20801 30.4506 7.33601C30.1466 7.46401 29.9066 7.65601 29.7306 7.91201C29.5546 8.15201 29.4666 8.44801 29.4666 8.80001C29.4666 9.15201 29.5626 9.46401 29.7546 9.73601C29.9466 9.99201 30.2746 10.24 30.7386 10.48C31.2026 10.72 31.8346 10.984 32.6346 11.272C33.4026 11.56 34.0506 11.88 34.5786 12.232C35.1226 12.568 35.5386 12.976 35.8266 13.456C36.1146 13.936 36.2586 14.512 36.2586 15.184C36.2586 16.48 35.8106 17.48 34.9146 18.184C34.0346 18.888 32.8106 19.24 31.2426 19.24Z" fill="white"/>
<path d="M43.0658 19.24C41.9298 19.24 41.0578 18.96 40.4498 18.4C39.8578 17.84 39.5618 16.864 39.5618 15.472V7.67201H37.7378V6.54401C38.1698 6.54401 38.5778 6.45601 38.9618 6.28001C39.3458 6.10401 39.6658 5.88801 39.9218 5.63201C40.1618 5.36001 40.3778 5.02401 40.5698 4.62401C40.7618 4.22401 40.9138 3.73601 41.0258 3.16001H42.6818V6.13601H45.7778V7.67201H42.6818V15.352C42.6818 16.104 42.8178 16.664 43.0898 17.032C43.3778 17.384 43.7938 17.56 44.3378 17.56C44.6578 17.56 44.9458 17.544 45.2018 17.512C45.4738 17.464 45.7378 17.408 45.9938 17.344V18.712C45.7538 18.824 45.3698 18.936 44.8418 19.048C44.3298 19.176 43.7378 19.24 43.0658 19.24Z" fill="white"/>
<path d="M57.5985 19.24C56.8945 19.24 56.2545 19.104 55.6785 18.832C55.1185 18.544 54.6705 18.112 54.3345 17.536C54.0145 16.96 53.8545 16.232 53.8545 15.352C53.8545 14.072 54.3025 13.12 55.1985 12.496C56.0945 11.872 57.4465 11.528 59.2545 11.464L61.2465 11.392V10.024C61.2465 9.48001 61.2065 9.00001 61.1265 8.58401C61.0465 8.15201 60.8785 7.81601 60.6225 7.57601C60.3825 7.33601 59.9985 7.21601 59.4705 7.21601C58.9905 7.21601 58.6145 7.32801 58.3425 7.55201C58.0705 7.77601 57.8865 8.08801 57.7905 8.48801C57.6945 8.87201 57.6465 9.31201 57.6465 9.80801C56.7185 9.80801 56.0225 9.69601 55.5585 9.47201C55.0945 9.23201 54.8625 8.82401 54.8625 8.24801C54.8625 7.67201 55.0705 7.20801 55.4865 6.85601C55.9185 6.50401 56.4945 6.24801 57.2145 6.08801C57.9345 5.92801 58.7185 5.84801 59.5665 5.84801C61.1665 5.84801 62.3665 6.16001 63.1665 6.78401C63.9665 7.39201 64.3665 8.44801 64.3665 9.95201V16.12C64.3665 16.552 64.4065 16.896 64.4865 17.152C64.5825 17.392 64.7425 17.568 64.9665 17.68C65.1905 17.776 65.4785 17.824 65.8305 17.824H65.9025V19H61.9185L61.4385 17.2H61.2465C60.8945 17.632 60.5585 18 60.2385 18.304C59.9345 18.608 59.5745 18.84 59.1585 19C58.7585 19.16 58.2385 19.24 57.5985 19.24ZM58.6305 17.584C59.1745 17.584 59.6385 17.456 60.0225 17.2C60.4065 16.944 60.7025 16.576 60.9105 16.096C61.1345 15.616 61.2465 15.056 61.2465 14.416V12.568L59.9985 12.64C59.2465 12.672 58.6545 12.8 58.2225 13.024C57.8065 13.248 57.5025 13.56 57.3105 13.96C57.1345 14.36 57.0465 14.856 57.0465 15.448C57.0465 15.928 57.1025 16.328 57.2145 16.648C57.3265 16.952 57.5025 17.184 57.7425 17.344C57.9825 17.504 58.2785 17.584 58.6305 17.584Z" fill="white"/>
<path d="M73.768 19V17.824H74.488C74.776 17.824 75.032 17.792 75.256 17.728C75.496 17.648 75.68 17.496 75.808 17.272C75.952 17.032 76.024 16.68 76.024 16.216V4.60001C76.024 4.15201 75.952 3.81601 75.808 3.59201C75.664 3.36801 75.472 3.22401 75.232 3.16001C75.008 3.08001 74.76 3.04001 74.488 3.04001H73.768V1.86401H80.56C82.768 1.86401 84.416 2.21601 85.504 2.92001C86.608 3.62401 87.16 4.72001 87.16 6.20801C87.16 6.91201 87.032 7.50401 86.776 7.98401C86.52 8.46401 86.168 8.85601 85.72 9.16001C85.272 9.46401 84.744 9.71201 84.136 9.90401V10.024C84.872 10.168 85.52 10.432 86.08 10.816C86.64 11.184 87.08 11.664 87.4 12.256C87.72 12.832 87.88 13.52 87.88 14.32C87.88 15.888 87.328 17.064 86.224 17.848C85.12 18.616 83.472 19 81.28 19H73.768ZM81.16 17.632C82.344 17.632 83.176 17.376 83.656 16.864C84.152 16.352 84.4 15.48 84.4 14.248C84.4 13.448 84.296 12.792 84.088 12.28C83.896 11.752 83.568 11.36 83.104 11.104C82.656 10.848 82.024 10.72 81.208 10.72H79.288V17.632H81.16ZM80.488 9.35201C81.304 9.35201 81.936 9.24801 82.384 9.04001C82.848 8.81601 83.176 8.47201 83.368 8.00801C83.576 7.54401 83.68 6.94401 83.68 6.20801C83.68 5.08801 83.432 4.31201 82.936 3.88001C82.456 3.44801 81.624 3.23201 80.44 3.23201H79.288V9.35201H80.488Z" fill="white"/>
<path d="M89.3209 19V17.824H89.6329C89.9209 17.824 90.2009 17.792 90.4729 17.728C90.7449 17.648 90.9689 17.496 91.1449 17.272C91.3369 17.032 91.4329 16.68 91.4329 16.216V3.44801C91.4329 3.00001 91.3369 2.67201 91.1449 2.46401C90.9529 2.24001 90.7209 2.09601 90.4489 2.03201C90.1769 1.96801 89.9049 1.93601 89.6329 1.93601H89.3209V0.76001H94.5529V16.216C94.5529 16.68 94.6409 17.032 94.8169 17.272C95.0089 17.496 95.2409 17.648 95.5129 17.728C95.8009 17.792 96.0809 17.824 96.3529 17.824H96.6649V19H89.3209Z" fill="white"/>
<path d="M104.175 19.24C102.335 19.24 100.879 18.688 99.8074 17.584C98.7514 16.48 98.2234 14.792 98.2234 12.52C98.2234 10.28 98.7274 8.60801 99.7354 7.50401C100.759 6.40001 102.263 5.84801 104.247 5.84801C106.103 5.84801 107.559 6.40001 108.615 7.50401C109.671 8.60801 110.199 10.28 110.199 12.52C110.199 14.792 109.687 16.48 108.663 17.584C107.655 18.688 106.159 19.24 104.175 19.24ZM104.223 17.824C104.911 17.824 105.455 17.632 105.855 17.248C106.271 16.848 106.567 16.248 106.743 15.448C106.919 14.648 107.007 13.672 107.007 12.52C107.007 11.352 106.911 10.384 106.719 9.61601C106.543 8.84801 106.247 8.27201 105.831 7.88801C105.431 7.48801 104.887 7.28801 104.199 7.28801C103.527 7.28801 102.983 7.48801 102.567 7.88801C102.151 8.27201 101.855 8.84801 101.679 9.61601C101.503 10.384 101.415 11.352 101.415 12.52C101.415 13.688 101.503 14.664 101.679 15.448C101.871 16.232 102.167 16.824 102.567 17.224C102.983 17.624 103.535 17.824 104.223 17.824Z" fill="white"/>
<path d="M117.007 24.76C115.199 24.76 113.847 24.464 112.951 23.872C112.071 23.296 111.631 22.456 111.631 21.352C111.631 20.76 111.759 20.264 112.015 19.864C112.271 19.464 112.639 19.152 113.119 18.928C113.599 18.688 114.151 18.536 114.775 18.472C114.391 18.312 114.031 18.064 113.695 17.728C113.359 17.376 113.191 16.928 113.191 16.384C113.191 15.888 113.359 15.448 113.695 15.064C114.047 14.68 114.519 14.32 115.111 13.984C114.407 13.712 113.839 13.256 113.407 12.616C112.975 11.976 112.759 11.2 112.759 10.288C112.759 8.89601 113.151 7.80801 113.935 7.02401C114.735 6.24001 115.951 5.84801 117.583 5.84801C118.159 5.84801 118.695 5.92801 119.191 6.08801C119.703 6.23201 120.111 6.40801 120.415 6.61601C120.655 6.36001 120.895 6.13601 121.135 5.94401C121.375 5.73601 121.631 5.57601 121.903 5.46401C122.191 5.35201 122.503 5.29601 122.839 5.29601C123.383 5.29601 123.783 5.43201 124.039 5.70401C124.311 5.96001 124.447 6.26401 124.447 6.61601C124.447 6.95201 124.335 7.25601 124.111 7.52801C123.887 7.80001 123.487 7.93601 122.911 7.93601C122.911 7.66401 122.831 7.44001 122.671 7.26401C122.511 7.08801 122.303 7.00001 122.047 7.00001C121.887 7.00001 121.727 7.02401 121.567 7.07201C121.407 7.12001 121.271 7.18401 121.159 7.26401C121.463 7.61601 121.719 8.04801 121.927 8.56001C122.135 9.07201 122.239 9.64001 122.239 10.264C122.239 11.464 121.863 12.464 121.111 13.264C120.359 14.048 119.183 14.44 117.583 14.44C117.407 14.44 117.175 14.432 116.887 14.416C116.615 14.384 116.399 14.36 116.239 14.344C115.983 14.472 115.759 14.648 115.567 14.872C115.375 15.096 115.279 15.368 115.279 15.688C115.279 15.944 115.375 16.144 115.567 16.288C115.775 16.432 116.103 16.504 116.551 16.504H119.383C120.407 16.504 121.239 16.656 121.879 16.96C122.519 17.248 122.991 17.664 123.295 18.208C123.599 18.752 123.751 19.392 123.751 20.128C123.751 21.568 123.199 22.696 122.095 23.512C121.007 24.344 119.311 24.76 117.007 24.76ZM117.055 23.416C118.079 23.416 118.895 23.312 119.503 23.104C120.111 22.896 120.543 22.6 120.799 22.216C121.071 21.832 121.207 21.368 121.207 20.824C121.207 20.232 121.023 19.824 120.655 19.6C120.303 19.392 119.775 19.288 119.071 19.288H116.455C116.087 19.288 115.719 19.336 115.351 19.432C114.999 19.528 114.703 19.712 114.463 19.984C114.239 20.272 114.127 20.704 114.127 21.28C114.127 21.728 114.223 22.112 114.415 22.432C114.623 22.752 114.943 22.992 115.375 23.152C115.807 23.328 116.367 23.416 117.055 23.416ZM117.511 13.12C117.991 13.12 118.359 13.016 118.615 12.808C118.887 12.584 119.071 12.256 119.167 11.824C119.279 11.392 119.335 10.864 119.335 10.24C119.335 9.60001 119.279 9.05601 119.167 8.60801C119.055 8.14401 118.863 7.79201 118.591 7.55201C118.335 7.31201 117.967 7.19201 117.487 7.19201C117.039 7.19201 116.679 7.32001 116.407 7.57601C116.135 7.81601 115.943 8.16801 115.831 8.63201C115.719 9.08001 115.663 9.62401 115.663 10.264C115.663 10.872 115.719 11.392 115.831 11.824C115.959 12.24 116.159 12.56 116.431 12.784C116.703 13.008 117.063 13.12 117.511 13.12Z" fill="white"/>
</svg>
